<?xml version="1.0" encoding="utf-8"?>
<!-- Generator: Adobe Illustrator 16.0.0, SVG Export Plug-In . SVG Version: 6.00 Build 0)  -->
<!DOCTYPE svg PUBLIC "-//W3C//DTD SVG 1.1//EN" "http://www.w3.org/Graphics/SVG/1.1/DTD/svg11.dtd">
<svg version="1.1" id="Layer_1" xmlns="http://www.w3.org/2000/svg" xmlns:xlink="http://www.w3.org/1999/xlink" x="0px" y="0px"
	 width="72px" height="72px" viewBox="0 0 72 72" enable-background="new 0 0 72 72" xml:space="preserve">
<rect fill="#7EC134" width="72" height="72"/>
<polygon fill="#A2EA62" points="66,60 66,54 60,54 60,48 54,48 54,42 48,42 48,36 42,36 42,30 36,30 36,24 30,24 30,18 24,18 24,12 
	18,12 18,6 12,6 12,0 6,0 0,0 0,6 0,12 6,12 6,18 12,18 12,24 18,24 18,30 24,30 24,36 30,36 30,42 36,42 36,48 42,48 42,54 48,54 
	48,60 54,60 54,66 60,66 60,72 66,72 72,72 72,66 72,60 "/>
<rect id="_x3C_Slice_x3E_" fill="none" width="72" height="72"/>
<rect x="66" fill="#A2EA62" width="6" height="6"/>
<polygon fill="#A2EA62" points="72,42 72,30 72,24 66,24 66,18 60,18 60,12 54,12 54,6 48,6 48,0 42,0 30,0 30,6 36,6 36,12 42,12 
	42,18 48,18 48,24 54,24 54,30 60,30 60,36 66,36 66,42 "/>
<rect y="66" fill="#A2EA62" width="6" height="6"/>
<polygon fill="#A2EA62" points="24,66 24,72 30,72 42,72 42,66 36,66 36,60 30,60 30,54 24,54 24,48 18,48 18,42 12,42 12,36 6,36 
	6,30 0,30 0,42 0,48 6,48 6,54 12,54 12,60 18,60 18,66 "/>
</svg>
