<?xml version="1.0" encoding="utf-8"?>
<!-- Generator: Adobe Illustrator 16.0.0, SVG Export Plug-In . SVG Version: 6.00 Build 0)  -->
<!DOCTYPE svg PUBLIC "-//W3C//DTD SVG 1.1//EN" "http://www.w3.org/Graphics/SVG/1.1/DTD/svg11.dtd">
<svg version="1.1" id="Layer_1" xmlns="http://www.w3.org/2000/svg" xmlns:xlink="http://www.w3.org/1999/xlink" x="0px" y="0px"
	 width="440px" height="224px" viewBox="0 0 440 224" enable-background="new 0 0 440 224" xml:space="preserve">
<rect fill="#EAEAEA" width="440" height="135"/>
<rect y="129" fill="#FFFFFF" width="440" height="6"/>
<rect y="135" opacity="0.1" width="440" height="6"/>
<g>
	<rect x="23" y="27" fill="#A82626" width="78" height="30"/>
	<g>
		<rect x="35" y="27" fill="#BC3131" width="6" height="30"/>
		<rect x="23" y="27" fill="#BC3131" width="6" height="30"/>
		<rect x="23" y="27" fill="#BC3131" width="78" height="6"/>
		<rect x="23" y="51" fill="#BC3131" width="78" height="6"/>
		<rect x="47" y="27" fill="#BC3131" width="6" height="30"/>
		<rect x="59" y="27" fill="#BC3131" width="6" height="30"/>
		<rect x="71" y="27" fill="#BC3131" width="6" height="30"/>
		<rect x="83" y="27" fill="#BC3131" width="6" height="30"/>
		<rect x="95" y="27" fill="#BC3131" width="6" height="30"/>
	</g>
	<rect x="23" y="57" fill="#D3D3D3" width="78" height="6"/>
</g>
<g>
	<rect x="146" y="27" fill="#6CAA24" width="78" height="30"/>
	<g>
		<rect x="158" y="27" fill="#7ABF31" width="6" height="30"/>
		<rect x="146" y="27" fill="#7ABF31" width="6" height="30"/>
		<rect x="146" y="27" fill="#7ABF31" width="78" height="6"/>
		<rect x="146" y="51" fill="#7ABF31" width="78" height="6"/>
		<rect x="170" y="27" fill="#7ABF31" width="6" height="30"/>
		<rect x="182" y="27" fill="#7ABF31" width="6" height="30"/>
		<rect x="194" y="27" fill="#7ABF31" width="6" height="30"/>
		<rect x="206" y="27" fill="#7ABF31" width="6" height="30"/>
		<rect x="218" y="27" fill="#7ABF31" width="6" height="30"/>
	</g>
	<rect x="146" y="57" fill="#D3D3D3" width="78" height="6"/>
</g>
<g>
	<g opacity="0.1">
		<g>
			<g>
				<path d="M48,111v-6h-6v6h-6v-6h-6v6h-6v102h30V111H48z M48,129h-6v6h6v18h-6v6h6v18h-6v6h6v18h-6v6H30v-12h6v-6h-6v-18h6v-6h-6
					v-18h6v-6h-6v-18h6v-6h12V129z"/>
				<rect x="36" y="99" width="6" height="6"/>
				<rect x="36" y="123" width="6" height="6"/>
				<rect x="36" y="135" width="6" height="6"/>
				<rect x="36" y="147" width="6" height="6"/>
				<rect x="36" y="159" width="6" height="6"/>
				<rect x="36" y="171" width="6" height="6"/>
				<rect x="36" y="183" width="6" height="6"/>
				<rect x="36" y="195" width="6" height="6"/>
			</g>
		</g>
	</g>
	<g>
		<g>
			<g>
				<path fill="#F7FF11" d="M48,105v-6h-6v6h-6v-6h-6v6h-6v102h30V105H48z M48,123h-6v6h6v18h-6v6h6v18h-6v6h6v18h-6v6H30v-12h6v-6
					h-6v-18h6v-6h-6v-18h6v-6h-6v-18h6v-6h12V123z"/>
				<rect x="36" y="93" fill="#F7FF11" width="6" height="6"/>
				<rect x="36" y="117" fill="#F7FF11" width="6" height="6"/>
				<rect x="36" y="129" fill="#F7FF11" width="6" height="6"/>
				<rect x="36" y="141" fill="#F7FF11" width="6" height="6"/>
				<rect x="36" y="153" fill="#F7FF11" width="6" height="6"/>
				<rect x="36" y="165" fill="#F7FF11" width="6" height="6"/>
				<rect x="36" y="177" fill="#F7FF11" width="6" height="6"/>
				<rect x="36" y="189" fill="#F7FF11" width="6" height="6"/>
			</g>
		</g>
	</g>
</g>
<g>
	<g opacity="0.1">
		<g>
			<g>
				<path d="M178,111v-6h-6v6h-6v-6h-6v6h-6v102h30V111H178z M178,129h-6v6h6v18h-6v6h6v18h-6v6h6v18h-6v6h-12v-12h6v-6h-6v-18h6v-6
					h-6v-18h6v-6h-6v-18h6v-6h12V129z"/>
				<rect x="166" y="99" width="6" height="6"/>
				<rect x="166" y="123" width="6" height="6"/>
				<rect x="166" y="135" width="6" height="6"/>
				<rect x="166" y="147" width="6" height="6"/>
				<rect x="166" y="159" width="6" height="6"/>
				<rect x="166" y="171" width="6" height="6"/>
				<rect x="166" y="183" width="6" height="6"/>
				<rect x="166" y="195" width="6" height="6"/>
			</g>
		</g>
	</g>
	<g>
		<g>
			<g>
				<path fill="#F7FF11" d="M178,105v-6h-6v6h-6v-6h-6v6h-6v102h30V105H178z M178,123h-6v6h6v18h-6v6h6v18h-6v6h6v18h-6v6h-12v-12h6
					v-6h-6v-18h6v-6h-6v-18h6v-6h-6v-18h6v-6h12V123z"/>
				<rect x="166" y="93" fill="#F7FF11" width="6" height="6"/>
				<rect x="166" y="117" fill="#F7FF11" width="6" height="6"/>
				<rect x="166" y="129" fill="#F7FF11" width="6" height="6"/>
				<rect x="166" y="141" fill="#F7FF11" width="6" height="6"/>
				<rect x="166" y="153" fill="#F7FF11" width="6" height="6"/>
				<rect x="166" y="165" fill="#F7FF11" width="6" height="6"/>
				<rect x="166" y="177" fill="#F7FF11" width="6" height="6"/>
				<rect x="166" y="189" fill="#F7FF11" width="6" height="6"/>
			</g>
		</g>
	</g>
</g>
<g>
	<g opacity="0.1">
		<g>
			<g>
				<path d="M309,111v-6h-6v6h-6v-6h-6v6h-6v102h30V111H309z M309,129h-6v6h6v18h-6v6h6v18h-6v6h6v18h-6v6h-12v-12h6v-6h-6v-18h6v-6
					h-6v-18h6v-6h-6v-18h6v-6h12V129z"/>
				<rect x="297" y="99" width="6" height="6"/>
				<rect x="297" y="123" width="6" height="6"/>
				<rect x="297" y="135" width="6" height="6"/>
				<rect x="297" y="147" width="6" height="6"/>
				<rect x="297" y="159" width="6" height="6"/>
				<rect x="297" y="171" width="6" height="6"/>
				<rect x="297" y="183" width="6" height="6"/>
				<rect x="297" y="195" width="6" height="6"/>
			</g>
		</g>
	</g>
	<g>
		<g>
			<g>
				<path fill="#F7FF11" d="M309,105v-6h-6v6h-6v-6h-6v6h-6v102h30V105H309z M309,123h-6v6h6v18h-6v6h6v18h-6v6h6v18h-6v6h-12v-12h6
					v-6h-6v-18h6v-6h-6v-18h6v-6h-6v-18h6v-6h12V123z"/>
				<rect x="297" y="93" fill="#F7FF11" width="6" height="6"/>
				<rect x="297" y="117" fill="#F7FF11" width="6" height="6"/>
				<rect x="297" y="129" fill="#F7FF11" width="6" height="6"/>
				<rect x="297" y="141" fill="#F7FF11" width="6" height="6"/>
				<rect x="297" y="153" fill="#F7FF11" width="6" height="6"/>
				<rect x="297" y="165" fill="#F7FF11" width="6" height="6"/>
				<rect x="297" y="177" fill="#F7FF11" width="6" height="6"/>
				<rect x="297" y="189" fill="#F7FF11" width="6" height="6"/>
			</g>
		</g>
	</g>
</g>
<rect id="_x3C_Slice_x3E_" fill="none" width="440" height="224"/>
</svg>
