<?xml version="1.0" encoding="utf-8"?>
<!-- Generator: Adobe Illustrator 16.0.0, SVG Export Plug-In . SVG Version: 6.00 Build 0)  -->
<!DOCTYPE svg PUBLIC "-//W3C//DTD SVG 1.1//EN" "http://www.w3.org/Graphics/SVG/1.1/DTD/svg11.dtd">
<svg version="1.1" id="Layer_1" xmlns="http://www.w3.org/2000/svg" xmlns:xlink="http://www.w3.org/1999/xlink" x="0px" y="0px"
	width="72px" height="72px" viewBox="0 0 72 72" enable-background="new 0 0 72 72" xml:space="preserve" class="ship submarine">
	<g cx="36" cy="36">
		<circle opacity="0" fill="#BE1E2D" cx="36" cy="36" r="36"/>
		<rect x="45" y="6" fill="#E4D8E4" width="6" height="12"/>
		<rect x="21" y="6" fill="#E4D8E4" width="6" height="12"/>
		<rect x="27" fill="#E4D8E4" width="18" height="6"/>
		<polygon fill="#766E7D" points="51,18 45,18 45,6 27,6 27,18 21,18 21,54 27,54 27,60 45,60 45,54 51,54 "/>
		<polygon fill="#E4D8E4" points="27,54 21,54 21,18 15,18 15,60 27,60 "/>
		<rect x="27" y="60" fill="#E4D8E4" width="18" height="6"/>
		<polygon fill="#E4D8E4" points="51,18 51,54 45,54 45,60 57,60 57,18 "/>
		<polygon fill="#B6B2C0" points="39,30 39,24 33,24 33,30 27,30 27,48 45,48 45,30 "/>
		<rect id="_x3C_Slice_x3E_" fill="none" width="72" height="72"/>
	</g>
</svg>