<?xml version="1.0" encoding="utf-8"?>
<!-- Generator: Adobe Illustrator 16.0.0, SVG Export Plug-In . SVG Version: 6.00 Build 0)  -->
<!DOCTYPE svg PUBLIC "-//W3C//DTD SVG 1.1//EN" "http://www.w3.org/Graphics/SVG/1.1/DTD/svg11.dtd">
<svg version="1.1" id="Layer_1" xmlns="http://www.w3.org/2000/svg" xmlns:xlink="http://www.w3.org/1999/xlink" x="0px" y="0px"
	 width="72px" height="72px" viewBox="0 0 72 72" enable-background="new 0 0 72 72" xml:space="preserve">
<g>
	<g opacity="0.1">
		<rect x="15" y="59.996" width="12" height="6"/>
		<rect x="51" y="24" width="6" height="41.996"/>
		<rect x="45" y="12" width="6" height="12"/>
		<rect x="21" y="12" width="6" height="12"/>
		<rect x="27" y="6" width="18" height="6"/>
		<polygon points="51,24 45,24 45,12 27,12 27,24 21,24 21,59.996 27,59.996 27,65.996 45,65.996 45,59.996 51,59.996 		"/>
		<rect x="15" y="24" width="6" height="42.004"/>
		<rect x="27" y="66.004" width="18" height="6"/>
		<rect x="45" y="59.996" width="12" height="6"/>
		<polygon points="39,36 39,30 33,30 33,36 27,36 27,53.996 45,53.996 45,36 		"/>
		<circle opacity="0" cx="36" cy="42" r="36"/>
	</g>
	<g>
		<g>
			<g>
				<rect x="15" y="53.996" fill="#E4D8E4" width="12" height="6"/>
			</g>
			<g>
				<rect x="51" y="18" fill="#E4D8E4" width="6" height="41.996"/>
			</g>
			<g>
				<rect x="45" y="6" fill="#E4D8E4" width="6" height="12"/>
			</g>
			<g>
				<rect x="21" y="6" fill="#E4D8E4" width="6" height="12"/>
			</g>
			<g>
				<rect x="27" fill="#E4D8E4" width="18" height="6"/>
			</g>
			<g>
				<polygon fill="#766E7D" points="51,18 45,18 45,6 27,6 27,18 21,18 21,53.996 27,53.996 27,59.996 45,59.996 45,53.996 
					51,53.996 				"/>
			</g>
			<g>
				<rect x="15" y="18" fill="#E4D8E4" width="6" height="42.004"/>
			</g>
			<g>
				<rect x="27" y="60.004" fill="#E4D8E4" width="18" height="6"/>
			</g>
			<g>
				<rect x="45" y="53.996" fill="#E4D8E4" width="12" height="6"/>
			</g>
			<g>
				<polygon fill="#B6B2C0" points="39,30 39,24 33,24 33,30 27,30 27,47.996 45,47.996 45,30 				"/>
			</g>
			<circle opacity="0" fill="#BE1E2D" cx="36" cy="36" r="36"/>
		</g>
	</g>
</g>
<rect id="_x3C_Slice_x3E_" fill="none" width="72" height="72"/>
</svg>
